PathFileType	4	(X/Y/Z)	Patient4_TMGait_0pt4_02_left_22.trc.trc
DataRate	CameraRate	NumFrames	NumMarkers	Units	OrigDataRate	OrigDataStartFrame	OrigNumFrames
74.866310160428	74.866310160428	4	33	mm	74.866310160428	124	       141
Frame#	Time	Sacral			L.Shoulder			Chest			R.Shoulder			Neck			R.ASIS			L.ASIS			R.Thigh.Superior			R.Thigh.Lateral			R.Thigh.Inferior			R.Patella			L.Thigh.Superior			L.Thigh.Lateral			L.Thigh.Inferior			L.Patella			L.Shank.Superior			L.Shank.Lateral			L.Shank.Inferior			R.Shank.Superior			R.Shank.Lateral			R.Shank.Inferior			R.Heel			R.Midfoot.Superior			R.Midfoot.Lateral			R.Toe			L.Heel			L.Midfoot.Lateral			L.Midfoot.Superior			L.Toe			L.Elbow			L.Wrist			R.Elbow			R.Wrist			
		X1	Y1	Z1	X2	Y2	Z2	X3	Y3	Z3	X4	Y4	Z4	X5	Y5	Z5	X6	Y6	Z6	X7	Y7	Z7	X8	Y8	Z8	X9	Y9	Z9	X10	Y10	Z10	X11	Y11	Z11	X12	Y12	Z12	X13	Y13	Z13	X14	Y14	Z14	X15	Y15	Z15	X16	Y16	Z16	X17	Y17	Z17	X18	Y18	Z18	X19	Y19	Z19	X20	Y20	Z20	X21	Y21	Z21	X22	Y22	Z22	X23	Y23	Z23	X24	Y24	Z24	X25	Y25	Z25	X26	Y26	Z26	X27	Y27	Z27	X28	Y28	Z28	X29	Y29	Z29	X30	Y30	Z30	X31	Y31	Z31	X32	Y32	Z32	X33	Y33	Z33	

124	31.122928571429	918.224325989208	1000.533560599616	528.124966541548	1060.621391593155	1430.708196011920	328.461488167169	1190.252921204656	1362.773938838960	468.731528789244	1136.855863827307	1433.169333777281	655.131385090114	1070.944150368187	1490.411781861175	485.129924493225	1158.384586845600	936.335133558460	616.149453823462	1112.153708318544	956.841348568385	344.735982020186	1152.762160184366	723.597950421974	592.127738044850	1051.707518913143	630.355335903164	662.153932556007	1106.520729774057	563.949441654394	579.894136536834	1088.990101149757	480.374719679633	586.565874336520	1188.901757222343	767.661666880082	369.496537168576	1129.740561929107	638.993757891462	297.654433837567	1236.265018636511	579.858936111439	350.537903915986	1256.442793355197	511.089398529474	347.996886423258	1235.097481202694	437.583781954651	337.899584501741	1155.653768676565	314.169861976945	290.032514445666	1236.499346657430	207.624981112562	340.174854935312	1051.446894096456	397.072123186109	596.092077192743	972.738709971535	301.920665978852	663.872127473661	1000.749844315252	202.602900743353	597.840090561357	855.323461661447	42.822748068873	571.924340497116	1026.058843540739	95.960102438403	605.730641680161	938.862860501545	36.617188640019	646.415928005870	1147.039262832862	43.575094895545	633.007506491392	1138.299952888561	41.336751259260	383.208673401484	1206.638195502028	39.007560265927	298.104547904854	1287.795103749811	105.590318247932	316.837691785339	1415.251399525912	60.731848253377	280.456229628655	929.288858677446	1098.824873524786	243.575767481966	924.876368166884	836.395309087092	247.242649934958	1272.228100098371	1122.557647893504	773.439458006045	1487.558210259948	1198.923127415566	671.813114385615	
125	31.136285714286	919.465531815035	999.609680457166	525.046777340768	1060.539821061604	1429.579908427387	324.845520522286	1190.243405327180	1362.486083215512	465.461472736328	1136.151560951551	1432.949912181942	651.674290672299	1070.449526348077	1489.682296693536	481.491033156061	1159.563990021755	935.713279210313	613.841016646237	1113.977339339602	955.760930158543	342.524442170241	1153.828036420763	722.599603697625	590.362661418684	1052.095921469635	629.659090420337	660.065214759054	1106.846497024771	562.868899193951	578.085162593533	1088.879961444196	478.771066618714	584.711764790703	1190.091194155122	765.415743268006	367.946697245776	1129.289684799645	637.393373223669	297.026525708428	1235.295339152894	577.600305915841	350.324997050984	1253.978575551481	508.038853316292	348.273211890859	1232.095060265898	434.443935710795	337.926150940529	1151.082131577066	311.844420012013	290.346618085319	1230.285500562414	204.491737916534	341.343273401746	1050.129238372645	395.918765365091	594.491077699274	970.264718772298	301.977568115209	662.667019108579	996.920433758278	202.072475427443	597.133670810371	849.950324136146	42.990405105453	571.960006694482	1020.783079558595	95.945863833329	605.620850200764	933.543213224082	36.618540530426	646.388383256092	1141.747344190495	43.309620419773	633.082575502636	1129.301920649899	39.959970228196	384.644468259128	1197.337537898838	37.319766957774	299.190614278680	1279.596150885096	102.316559235439	318.533473665396	1406.532523062651	55.698148221142	281.422322655569	930.630859525898	1097.039267948366	240.209144398635	928.169350895081	834.506797808945	244.051096033978	1272.573937275276	1122.682332554853	770.294895302720	1487.481375357188	1199.730850335107	668.174030453721	
126	31.149642857143	920.607143615301	998.897002390472	522.024019177139	1060.644914958033	1428.573102615405	321.104713296699	1190.358196857546	1362.277626750917	462.104413481776	1135.629116546016	1432.965395960503	648.086742033090	1070.124934388585	1489.144804632317	477.682881127882	1160.641391399436	935.207226691544	611.389715189306	1115.561469457758	954.996124051426	340.204124505240	1155.123553628115	721.757119961375	588.265379790022	1053.056821013462	628.907162789239	657.722438249416	1107.841642854421	561.838208818536	575.946504752436	1089.534227799390	477.035439910654	582.603322594250	1191.110017349320	763.618505468384	366.277019070343	1128.923178791200	636.335324390816	296.071387928341	1234.294292715960	575.837542489915	349.926539685383	1251.588604054445	505.645508113565	348.313163223751	1229.367790770017	431.985569781319	337.691900406402	1147.234366069428	310.061574056041	290.100563945029	1224.862685047140	202.105094438653	342.147121457109	1049.422738434757	394.668863879953	592.680680456121	968.259644871425	302.108115191123	661.289629959493	993.377676243337	201.575404587244	596.322454768717	844.589442321957	43.401814326875	572.002990276808	1015.616382899076	95.980355894883	605.501496514123	928.265840298682	36.732342464690	646.344995051063	1136.523327419160	42.961039011719	633.162171115905	1121.479318142791	38.967495278465	385.598338040714	1189.336884184206	36.197327147712	299.904343052221	1272.370679177634	99.970817220111	319.869540719860	1398.960963026967	52.102018586981	282.258735824769	932.751051838452	1095.105227482902	236.558111703964	932.343688745640	832.491024768370	240.394972301726	1272.351217802040	1122.731458150817	767.275021919351	1487.373203256590	1199.364451673437	664.827874348215	
127	31.163000000000	921.620764410797	998.421221907933	519.084491866882	1060.894566956910	1427.736084777936	317.298919413172	1190.577770618647	1362.168084415347	458.688313469088	1135.316818376484	1433.240767732951	644.402613506732	1069.958583195286	1488.828166100045	473.761139568645	1161.582567737367	934.857709947164	608.796485951355	1116.853055795427	954.583608669894	337.746063287785	1156.573716683397	721.121597534584	585.828372447904	1054.553715793657	628.143986105955	655.160521830434	1109.484655302195	560.904152471980	573.514289193987	1090.966947289556	475.207432329992	580.337873673645	1191.979416701529	762.393740088397	364.413347973654	1128.687100782856	635.830152608805	294.755270207878	1233.319583758020	574.607786931423	349.224687391754	1249.353349470803	503.930183028733	348.026355907100	1226.959716401717	430.206414546640	337.175572330723	1144.081475121389	308.842043261124	289.307011016631	1220.168624452551	200.442331197781	342.575330779302	1049.331359229138	393.375831243358	590.732555640705	966.715545806513	302.373001637936	659.783202854458	990.139685620770	201.178283490319	595.447378370167	839.260893809589	44.172039498043	572.055534224103	1010.598237198124	96.084109340643	605.386811572447	923.043799884282	37.022938300282	646.289228095777	1131.373616826720	42.526050194249	633.244638707840	1114.740871759969	38.341873816925	386.111904322101	1182.521341093855	35.565468651105	300.273923018253	1266.037710238140	98.483429806273	320.809589639315	1392.434175721616	49.827743872045	282.903467684363	935.635719243941	1093.086249789779	232.647809778136	937.405809272860	830.418262438762	236.291690244015	1271.540975062114	1122.722363340872	764.376698417745	1487.203606950375	1197.815393669246	661.763683541793	
